<svg xmlns="http://www.w3.org/2000/svg" width="50" height="16" viewBox="0 0 49.923 15.685" fill="#fff"><path d="M49.733 4.542h-4l-1.995 2.733-1.917-2.733h-4.27l4 5.406-4.108 5.406h4.108l2.076-2.832 1.936 2.832h4.33L45.74 9.8l3.992-5.267zm-17.298 0h3.8v10.814h-3.8V4.542zM26.507.55h3.8v14.804h-3.8V.55z"/><path fill-rule="evenodd" d="M24.277 12.82c-.524.856-1.277 1.547-2.174 1.995-.977.49-2.058.735-3.152.718a6.75 6.75 0 0 1-3.134-.718c-1.854-.917-3.012-2.82-2.974-4.89-.03-2.056 1.124-3.946 2.966-4.86.976-.483 2.053-.727 3.142-.708 1.092-.017 2.17.225 3.15.708h.001c.898.442 1.65 1.126 2.175 1.976.525.868.796 1.87.78 2.884a5.44 5.44 0 0 1-.779 2.893zm-3.69-4.767c-.433-.436-1.02-.68-1.635-.68a2.3 2.3 0 0 0-1.636.68c-.426.45-.64 1.076-.64 1.874 0 .813.213 1.448.64 1.905.43.44 1.02.69 1.636.69a2.28 2.28 0 0 0 1.635-.689c.427-.474.64-1.107.64-1.905s-.212-1.423-.64-1.874z"/><path d="M5.887 15.635c1.33 0 2.46-.203 3.393-.608s1.63-.95 2.092-1.627c.463-.668.708-1.462.7-2.275 0-.97-.257-1.74-.768-2.304a4.58 4.58 0 0 0-1.816-1.238 19.21 19.21 0 0 0-2.636-.729 11.57 11.57 0 0 1-2.057-.584c-.424-.185-.637-.464-.637-.836a1.04 1.04 0 0 1 .538-.908c.358-.234.93-.35 1.716-.35 1.25 0 2.54.36 3.87 1.078L11.5 2.32a8.27 8.27 0 0 0-2.362-.902c-.9-.206-1.8-.3-2.714-.3-1.342 0-2.477.2-3.4.598s-1.62.943-2.087 1.63a4.02 4.02 0 0 0-.699 2.302c0 .972.253 1.743.76 2.316A4.42 4.42 0 0 0 2.813 9.21a19.63 19.63 0 0 0 2.636.73 12 12 0 0 1 2.083.608c.437.192.65.488.65.888 0 .76-.76 1.138-2.277 1.138a8.3 8.3 0 0 1-2.432-.379 8.44 8.44 0 0 1-2.175-.999L0 14.098c.666.466 1.53.837 2.595 1.117 1.074.28 2.18.422 3.292.42m26.41-13.863a1.64 1.64 0 0 0 .56 1.261 2.11 2.11 0 0 0 1.473.506 2.09 2.09 0 0 0 1.472-.516 1.7 1.7 0 0 0 .56-1.31 1.55 1.55 0 0 0-.56-1.237C35.43.16 34.94.001 34.33.001a2.11 2.11 0 0 0-1.473.508c-.364.32-.568.78-.56 1.263"/></svg>